<svg width="84" height="18" viewBox="0 0 84 18" fill="none" xmlns="http://www.w3.org/2000/svg">
<path d="M3.73327 0.265601C3.54004 0.414725 3.37901 0.64519 3.36291 0.780758C3.34681 1.09256 3.23409 1.72973 3.10527 2.29912C3.04086 2.55669 2.97645 2.8685 2.96034 2.97695C2.91204 3.34299 2.73491 4.38686 2.6705 4.73933C2.60609 5.05114 2.52557 5.44429 2.31624 6.63728C2.20352 7.26089 2.12301 7.70827 2.02639 8.12853C1.97809 8.31832 1.89757 8.7657 1.84926 9.14528C1.78485 9.51132 1.72044 9.94513 1.68824 10.0943C1.67214 10.2434 1.59162 10.6636 1.52721 11.0432C1.4628 11.4093 1.38229 11.8431 1.35008 11.9922C1.30178 12.1413 1.23736 12.5074 1.18906 12.8056C1.14075 13.1039 1.07634 13.497 1.02803 13.6868C0.995826 13.8766 0.915313 14.3375 0.867005 14.7036C0.738184 15.6932 0.850902 15.7339 3.23409 15.6932L5.23081 15.6525L5.72999 13.0496C6.34189 9.82312 6.27748 9.90446 8.58016 9.89091C13.2338 9.87735 15.5848 8.58946 16.6959 5.41717C17.0501 4.38686 17.034 3.04474 16.6637 2.43468C16.5348 2.21778 16.4221 2.00087 16.4221 1.9602C16.4221 1.91953 16.1967 1.6755 15.9068 1.40437C14.6991 0.292714 13.1855 0.0351353 7.80723 0.00802231C4.24855 -0.0190916 4.08753 -0.00553417 3.73327 0.265601Z" fill="#15406B"/>
<path d="M27.5809 4.90366C27.3716 5.09345 27.2105 5.45949 27.1461 5.8933C27.0978 6.25933 27.0334 6.72026 26.9851 6.8965C26.9368 7.05918 26.8563 7.493 26.808 7.84548C26.6308 8.91646 26.3571 10.4348 26.3249 10.5704C26.2766 10.7602 26.035 11.8854 26.0028 12.0616C25.8579 13.1191 25.6486 14.1629 25.5198 14.5154C25.3265 15.0034 25.713 15.1797 26.9529 15.1797C28.1928 15.1797 28.8047 14.9628 28.7886 14.529C28.7725 14.407 28.8208 14.0545 28.8852 13.7562C28.9496 13.458 29.0623 12.9157 29.1268 12.5632C29.2073 12.1972 29.32 11.8583 29.4005 11.7905C29.481 11.7363 30.3505 11.6549 31.3167 11.6278C32.7498 11.5871 33.2329 11.5194 33.8287 11.2753C35.5034 10.5839 36.4051 9.24182 36.4534 7.37099C36.4695 6.36779 36.4373 6.24578 36.0026 5.77129C35.5517 5.26969 34.811 4.90366 33.9736 4.76809C33.7482 4.74098 32.299 4.68675 30.7531 4.64608C27.9674 4.57829 27.9352 4.59185 27.5809 4.90366ZM32.621 7.24898C33.0236 7.46589 33.0397 7.52011 32.9431 8.17084C32.8787 8.55043 32.7498 8.95713 32.6532 9.05203C32.3151 9.39095 31.6388 9.58074 30.6887 9.60786L29.7387 9.64853L29.8514 9.1876C29.9158 8.94357 30.0285 8.38775 30.109 7.96749C30.1895 7.53367 30.2861 7.12697 30.3505 7.04563C30.5116 6.81516 32.1057 6.96429 32.621 7.24898Z" fill="#15406B"/>
<path d="M38.9816 8.23587C38.3053 8.45278 36.389 9.87624 36.389 10.1474C36.389 10.2287 36.3085 10.4456 36.1958 10.6625C35.5356 12.0182 35.7449 13.5501 36.695 14.472C37.1942 14.9465 38.3214 15.3125 39.2875 15.3125C40.3181 15.3125 41.7351 14.9058 42.1538 14.4991C42.3309 14.3229 42.347 14.3229 42.3309 14.4991C42.2504 15.1905 42.2665 15.1905 43.7479 15.1498L45.1489 15.1091L45.2616 14.7024C45.5675 13.6179 45.7286 12.8858 45.8091 12.3978C45.8413 12.0995 45.9218 11.7335 45.954 11.5708C45.9862 11.4082 46.0667 10.9608 46.1311 10.5676C46.1955 10.1745 46.276 9.72711 46.3083 9.56443C46.5659 8.52056 46.5498 8.45278 46.1311 8.29009C45.6158 8.08674 44.0378 8.07319 43.6191 8.27654C43.4259 8.35788 43.3293 8.507 43.3776 8.61546C43.4259 8.72391 43.136 8.64257 42.6047 8.39855C41.8961 8.05963 41.5902 7.99185 40.7206 8.0054C40.1571 8.0054 39.368 8.11386 38.9816 8.23587ZM41.9444 10.2287C43.442 10.7439 43.0072 12.8316 41.3325 13.3197C39.4646 13.8484 38.112 12.7367 38.8527 11.2726C38.9655 11.0421 39.3358 10.6625 39.674 10.4456C40.3825 9.97113 41.0588 9.90335 41.9444 10.2287Z" fill="#15406B"/>
<path d="M54.8102 8.26532C54.6331 8.31955 54.3593 8.57712 54.2144 8.8347C54.0695 9.07872 53.8119 9.4312 53.6347 9.60744C53.4415 9.78368 53.2966 10.0141 53.2966 10.1226C53.2966 10.2175 53.2322 10.2988 53.1517 10.2988C53.0711 10.2988 52.9262 10.4751 52.8135 10.7055C52.7008 10.9224 52.572 11.1122 52.5075 11.1122C52.4592 11.1122 52.3143 11.2885 52.2016 11.5189C52.0728 11.7359 51.9279 11.9256 51.8473 11.9256C51.7024 11.9256 51.4609 11.4376 51.1066 10.3937C50.9617 9.94636 50.7041 9.3363 50.543 9.01094L50.2371 8.41444L48.8523 8.37377C47.9666 8.34666 47.4191 8.38733 47.3225 8.48223C47.2259 8.59068 47.3386 9.06517 47.6607 9.8379C47.9344 10.5022 48.192 11.1394 48.2243 11.2478C48.2565 11.3563 48.4175 11.7494 48.5624 12.129C48.8362 12.8204 48.9328 13.0915 48.9489 13.2135C48.9489 13.2542 49.0616 13.4711 49.1904 13.688C49.3353 13.9185 49.3997 14.0947 49.3514 14.0947C49.3031 14.0947 49.3192 14.2032 49.3997 14.3252C49.5125 14.5014 49.4642 14.6912 49.2065 14.9895C46.936 17.7551 46.9199 17.8906 48.659 17.8906H49.7862L50.4947 17.267C50.8812 16.9281 51.2032 16.6027 51.2032 16.5349C51.2032 16.4672 51.3965 16.2096 51.6541 15.9656C51.8956 15.7215 52.1694 15.4233 52.2499 15.3013C52.3465 15.1793 52.7813 14.637 53.2161 14.1083C53.6669 13.566 54.1017 13.0237 54.1822 12.9017C54.2788 12.7797 54.3755 12.6442 54.4238 12.6035C54.4721 12.5628 54.7297 12.2646 54.9873 11.9256C55.2611 11.5867 55.5992 11.1936 55.7603 11.058C55.9052 10.9089 56.034 10.7462 56.034 10.692C56.034 10.6378 56.1306 10.5022 56.2434 10.4073C56.3561 10.3124 56.6137 10.0006 56.823 9.71589C57.0324 9.4312 57.3061 9.11939 57.4349 9.01094C57.5638 8.90249 57.6443 8.67202 57.6121 8.50934C57.5638 8.22465 57.4672 8.19753 56.3561 8.17042C55.6959 8.15686 55.0035 8.19753 54.8102 8.26532Z" fill="#15406B"/>
<path d="M59.8996 4.74097C59.8996 4.82232 59.8352 4.86299 59.7547 4.80876C59.5454 4.71386 59.3038 5.13412 59.336 5.55438C59.3521 5.74418 59.3038 5.94753 59.2394 6.02887C59.175 6.09665 59.0784 6.55758 59.014 7.04563C58.8369 8.4013 58.8046 8.57754 58.708 8.94357C58.4826 9.74342 58.2411 10.9635 58.225 11.4516C58.2089 11.6685 58.1605 11.9261 58.0961 11.9938C58.0478 12.0752 57.9512 12.4954 57.9029 12.9428C57.7097 14.4747 57.6614 14.773 57.5808 14.895C57.4359 15.0983 57.9351 15.1797 59.2555 15.1797C60.0607 15.1797 60.5598 15.1255 60.6726 15.0034C60.7531 14.9221 60.8819 14.5018 60.9463 14.0951C60.9946 13.6884 61.0912 13.1597 61.1395 12.9428C61.1878 12.7124 61.2361 12.4141 61.2522 12.265C61.2845 11.8041 61.7192 11.682 63.3778 11.6143C65.0525 11.56 65.6 11.4922 65.922 11.2482C66.0347 11.1804 66.1635 11.1398 66.2118 11.1804C66.2441 11.2211 66.5017 11.0855 66.7593 10.8686C67.339 10.4348 68.0314 9.62141 67.8382 9.62141C67.7738 9.62141 67.7899 9.56718 67.9026 9.51296C67.9992 9.45873 68.1281 9.25538 68.1603 9.07914C68.2086 8.88935 68.3213 8.56398 68.4179 8.36063C68.6594 7.83192 68.5145 6.13732 68.1925 5.87974C68.0637 5.75773 67.9509 5.62216 67.9509 5.56794C67.9509 5.52727 67.7416 5.36459 67.4679 5.24257C67.2102 5.10701 66.9848 5.03922 66.9848 5.09345C66.9848 5.13412 66.8882 5.10701 66.7593 5.02567C66.4373 4.7952 65.455 4.71386 62.5244 4.64608C60.6081 4.60541 59.8996 4.61896 59.8996 4.74097ZM64.2473 7.07274C64.2473 7.14052 64.3439 7.18119 64.4728 7.18119C65.3101 7.18119 65.0525 9.1876 64.1829 9.41806C64.0058 9.47229 63.3778 9.54007 62.8303 9.58074L61.7997 9.64853L61.9125 8.71311C61.9769 8.21151 62.1057 7.64212 62.1701 7.47944C62.2506 7.3032 62.2667 7.09985 62.2184 7.03207C62.1701 6.95073 62.5405 6.91006 63.1846 6.93717C63.7643 6.96428 64.2473 7.01851 64.2473 7.07274Z" fill="#1596C1"/>
<path d="M16.8247 5.29524C16.6476 6.18998 15.6976 7.627 14.828 8.30484C13.3466 9.47072 11.8007 9.89098 8.91836 9.89098C6.40636 9.89098 6.47077 9.83675 5.89107 12.8057C5.64953 14.08 5.39189 15.2866 5.31138 15.517C5.08594 16.1542 4.95712 17.171 5.06984 17.4828C5.16645 17.7403 5.29528 17.7539 7.22759 17.7539C8.80564 17.7539 9.33703 17.7132 9.48195 17.5641C9.65908 17.3743 9.7718 16.9541 9.90062 15.9915C9.93283 15.7339 9.98113 15.5035 9.99724 15.4764C10.0133 15.4628 10.0455 15.3272 10.0616 15.1781C10.0778 15.029 10.1261 14.8799 10.1422 14.8392C10.2066 14.7172 10.2388 14.5816 10.3676 13.7953C10.5125 12.9006 10.5286 12.887 12.155 12.8464C12.783 12.8328 13.3627 12.7921 13.4432 12.7379C13.5398 12.6972 13.8297 12.643 14.0873 12.6159C14.361 12.5888 14.6026 12.5346 14.6509 12.4803C14.6992 12.4397 14.8441 12.3854 14.9729 12.3583C15.1018 12.3312 15.2467 12.2499 15.2628 12.1821C15.295 12.1143 15.3916 12.0872 15.456 12.1278C15.6976 12.2499 17.1951 10.9213 17.6138 10.2028C18.0807 9.41649 18.1774 9.09113 18.2901 7.65411C18.3384 6.9356 18.3062 6.42045 18.1774 6.16287C18.0646 5.9324 17.968 5.72905 17.9519 5.68838C17.9036 5.49859 17.485 4.9292 17.3239 4.84786C17.0019 4.67162 16.9375 4.72585 16.8247 5.29524Z" fill="#1596C1"/>
<path d="M80.3337 4.90402C80.3337 4.99892 80.3015 5.17516 80.2854 5.28361C80.2532 5.39207 80.1888 5.7581 80.1405 6.09702C80.0922 6.43594 80.0116 6.80197 79.9633 6.91042C79.8667 7.12733 79.6896 8.30677 79.6574 9.03884C79.6413 9.28286 79.5769 9.48621 79.5286 9.48621C79.4803 9.48621 79.432 9.56755 79.432 9.64889C79.4159 9.89291 79.2709 10.8012 79.1421 11.4519C79.0938 11.7502 79.0133 12.1976 78.965 12.4551C78.9328 12.6992 78.8684 12.9432 78.8201 12.9974C78.7879 13.0516 78.7234 13.4583 78.6751 13.9057C78.6268 14.3531 78.5785 14.7869 78.5624 14.8547C78.4658 15.2885 78.5946 15.3292 79.8667 15.3021C80.6235 15.2885 81.2193 15.2072 81.316 15.1123C81.3965 15.0309 81.5092 14.6649 81.5414 14.3124C81.5897 13.9735 81.6541 13.6346 81.7024 13.5804C81.7829 13.4719 81.9762 12.3331 82.0406 11.5875C82.0567 11.357 82.1533 10.9368 82.2499 10.6385C82.3948 10.164 82.5237 9.41843 82.6686 8.2661C82.7008 8.07631 82.7652 7.80517 82.8135 7.65605C82.9584 7.2629 83.1356 6.13769 83.1517 5.41918L83.1678 4.80912L81.7668 4.76845C80.7041 4.74134 80.3498 4.76845 80.3337 4.90402Z" fill="#1596C1"/>
<path d="M70.9613 8.23618C70.6876 8.33108 70.3172 8.52087 70.1562 8.64289C69.979 8.7649 69.818 8.85979 69.7697 8.83268C69.7375 8.80557 69.4477 9.00892 69.1417 9.2665C68.8197 9.53763 68.6264 9.75454 68.7069 9.75454C68.7713 9.75454 68.7713 9.80877 68.6747 9.863C68.4332 10.0121 67.9501 10.8662 67.8696 11.3136C67.8213 11.5305 67.7408 11.9101 67.6925 12.1541C67.5314 12.8726 68.5137 14.9197 68.9163 14.7028C68.9807 14.6621 69.0773 14.7299 69.1256 14.8383C69.351 15.3128 72.3944 15.4213 73.2157 14.9739C73.4089 14.8654 73.6021 14.7841 73.6343 14.7977C73.6665 14.8248 73.8115 14.757 73.9564 14.6485C74.1979 14.4859 74.2301 14.513 74.2301 14.8248C74.2301 15.1772 74.2301 15.1772 75.4861 15.1772C76.1624 15.1772 76.8065 15.123 76.9032 15.0688C77.1447 14.9332 77.3862 14.2961 77.5151 13.3471C77.6117 12.737 77.7888 11.883 77.8532 11.6525C77.8854 11.544 77.9659 11.1373 78.0303 10.7713C78.0787 10.3917 78.1431 10.0663 78.1753 10.0257C78.2075 9.98501 78.2719 9.63253 78.3363 9.23938C78.4812 8.29041 78.2558 8.14129 76.7743 8.12773C75.8726 8.12773 75.6472 8.18196 75.3734 8.42598C75.0836 8.68356 75.0031 8.69711 74.7615 8.52087C74.6005 8.41242 74.3267 8.2633 74.1335 8.1684C73.6987 7.96505 71.6054 8.00572 70.9613 8.23618ZM73.8276 10.229C74.1818 10.3375 74.4073 10.4188 74.3106 10.4324C74.214 10.4324 74.2301 10.473 74.3267 10.5408C74.4234 10.5951 74.6166 10.812 74.7615 11.0424C74.9709 11.4085 74.9709 11.5034 74.7615 11.9914C74.4717 12.615 73.7793 13.2793 73.3284 13.3471C73.1674 13.3742 73.0224 13.4013 73.0224 13.4149C73.0224 13.5098 71.9758 13.4691 71.6537 13.3606C70.913 13.1031 70.6876 12.8048 70.607 11.9643C70.5104 11.1509 71.8147 10.0392 72.8614 10.0392C73.0385 10.0257 73.4733 10.1206 73.8276 10.229Z" fill="#1596C1"/>
</svg>
